<svg xml:space="preserve" style="enable-background:new 0 0 1024 1024;" viewBox="0 0 1024 1024" y="0px" x="0px" xmlns:xlink="http://www.w3.org/1999/xlink" xmlns="http://www.w3.org/2000/svg" id="图层_1" version="1.1">
<style type="text/css">
	.st0{opacity:0.01;fill:#6A9CD8;}
	.st1{fill:url(#SVGID_1_);}
	.st2{fill:url(#SVGID_2_);}
	.st3{fill:url(#SVGID_3_);}
	.st4{fill:url(#SVGID_4_);}
	.st5{opacity:0.6;}
	.st6{fill:#7AA1F8;}
	.st7{fill:url(#SVGID_5_);}
	.st8{fill:url(#SVGID_6_);}
	.st9{fill:url(#SVGID_7_);}
	.st10{fill:url(#SVGID_8_);}
	.st11{fill:url(#SVGID_9_);}
	.st12{fill:url(#SVGID_10_);}
	.st13{fill-rule:evenodd;clip-rule:evenodd;fill:#F5986A;}
	.st14{fill-rule:evenodd;clip-rule:evenodd;fill:#F8AD72;}
	.st15{fill-rule:evenodd;clip-rule:evenodd;fill:#272B73;}
	.st16{fill-rule:evenodd;clip-rule:evenodd;fill:#262A71;}
	.st17{fill-rule:evenodd;clip-rule:evenodd;fill:#151145;}
	.st18{fill-rule:evenodd;clip-rule:evenodd;fill:#27327B;}
	.st19{fill-rule:evenodd;clip-rule:evenodd;fill:#2B3682;}
	.st20{fill-rule:evenodd;clip-rule:evenodd;fill:#F48D67;}
	.st21{fill-rule:evenodd;clip-rule:evenodd;fill:#7AA1F8;}
	.st22{fill-rule:evenodd;clip-rule:evenodd;fill:#EF8D61;}
	.st23{fill-rule:evenodd;clip-rule:evenodd;fill:#5A8FED;}
</style>
<rect height="666.78" width="741.96" class="st0" y="177.84" x="139.98"></rect>
<linearGradient y2="561.2272" x2="513.8104" y1="177.8389" x1="513.8104" gradientUnits="userSpaceOnUse" id="SVGID_1_">
	<stop style="stop-color:#D0DDF8" offset="4.528621e-07"></stop>
	<stop style="stop-color:#FFFFFF;stop-opacity:0" offset="1"></stop>
</linearGradient>
<path d="M730.34,228.57v332.66H297.28c0.72-165.43,1.39-190.87,2.12-356.36h96.99c0.18,29.51,0.18,42.33,0,42.81v0.06
	c0,0,0.12-0.06,0.18-0.12v-0.18c0-8.71,7.01-15.72,15.72-15.72c8.71,0,15.72,7.01,15.72,15.72v9.31h69.29v-78.91h62.16v113.74
	c-0.06,0.24-0.06,0.42-0.06,0.67v38.27c0,5.62,4.53,10.16,10.16,10.16c5.56,0,10.1-4.53,10.1-10.16V300.7
	c19.53-0.06,33.68-0.12,43.05-0.12c9.37,0,13.97,0.06,14.39,0.12c1.51-0.18,0-23.1,0-23.1h29.57v27.15c0,4.11,3.33,7.44,7.44,7.44
	c4.11,0,7.44-3.33,7.44-7.44v-76.19H730.34z" class="st1"></path>
<linearGradient y2="844.6227" x2="513.8104" y1="492.5027" x1="513.8104" gradientUnits="userSpaceOnUse" id="SVGID_2_">
	<stop style="stop-color:#D0DDF8" offset="4.528621e-07"></stop>
	<stop style="stop-color:#FFFFFF" offset="1"></stop>
</linearGradient>
<ellipse ry="176.06" rx="370.98" cy="668.56" cx="513.81" class="st2"></ellipse>
<linearGradient y2="452.2528" x2="524.0966" y1="723.4534" x1="680.6744" gradientUnits="userSpaceOnUse" id="SVGID_3_">
	<stop style="stop-color:#FFFFFF;stop-opacity:0" offset="0"></stop>
	<stop style="stop-color:#9DB9E0" offset="1"></stop>
</linearGradient>
<polygon points="849.13,626.2 602.39,764.63 355.64,549.51 657.07,527.53" class="st3"></polygon>
<linearGradient y2="620.8437" x2="357.3721" y1="726.2932" x1="357.3721" gradientUnits="userSpaceOnUse" id="SVGID_4_">
	<stop style="stop-color:#FFFFFF;stop-opacity:0" offset="0"></stop>
	<stop style="stop-color:#9DB9E0" offset="1"></stop>
</linearGradient>
<polygon points="412.04,713.88 352.67,726.29 302.7,620.84 327.61,631.26" class="st4"></polygon>
<g class="st5">
	<g>
		<path d="M334.76,201.31c-6.42,0-11.65-5.22-11.65-11.65s5.22-11.65,11.65-11.65s11.65,5.22,11.65,11.65
			S341.19,201.31,334.76,201.31z M334.76,184.49c-2.85,0-5.17,2.32-5.17,5.17c0,2.85,2.32,5.17,5.17,5.17
			c2.85,0,5.17-2.32,5.17-5.17C339.93,186.81,337.61,184.49,334.76,184.49z" class="st6"></path>
	</g>
	<g>
		<circle r="8.41" cy="370.96" cx="332.66" class="st6"></circle>
	</g>
	<g>
		<circle r="17.62" cy="476.77" cx="657.07" class="st6"></circle>
	</g>
	<g>
		<circle r="6.95" cy="295.14" cx="641.35" class="st6"></circle>
	</g>
	<g>
		<circle r="5.99" cy="240.1" cx="741.53" class="st6"></circle>
	</g>
	<g>
		<circle r="8.28" cy="376.25" cx="805.6" class="st6"></circle>
	</g>
	<g>
		<circle r="7.83" cy="610.77" cx="687.44" class="st6"></circle>
	</g>
	<g>
		<path d="M577.27,209.71c-6.42,0-11.65-5.22-11.65-11.65s5.22-11.65,11.65-11.65s11.65,5.22,11.65,11.65
			S583.69,209.71,577.27,209.71z M577.27,192.9c-2.85,0-5.17,2.32-5.17,5.17c0,2.85,2.32,5.17,5.17,5.17c2.85,0,5.17-2.32,5.17-5.17
			C582.44,195.22,580.12,192.9,577.27,192.9z" class="st6"></path>
	</g>
	<g>
		<path d="M461.11,667.48c-6.42,0-11.65-5.22-11.65-11.65s5.22-11.65,11.65-11.65s11.65,5.22,11.65,11.65
			S467.53,667.48,461.11,667.48z M461.11,650.66c-2.85,0-5.17,2.32-5.17,5.17c0,2.85,2.32,5.17,5.17,5.17
			c2.85,0,5.17-2.32,5.17-5.17C466.28,652.98,463.96,650.66,461.11,650.66z" class="st6"></path>
	</g>
	<g>
		<path d="M252.5,474.65h-22.48c-1.96,0-3.55-1.59-3.55-3.55l0,0c0-1.96,1.59-3.55,3.55-3.55h22.48
			c1.96,0,3.55,1.59,3.55,3.55l0,0C256.05,473.06,254.46,474.65,252.5,474.65z" class="st6"></path>
	</g>
	<g>
		<path d="M237.57,482.2V460c0-2.04,1.65-3.69,3.69-3.69l0,0c2.04,0,3.69,1.65,3.69,3.69v22.2
			c0,2.04-1.65,3.69-3.69,3.69l0,0C239.22,485.89,237.57,484.24,237.57,482.2z" class="st6"></path>
	</g>
	<g>
		<path d="M252.58,323.48h-14.6c-1.27,0-2.3-1.03-2.3-2.3l0,0c0-1.27,1.03-2.3,2.3-2.3h14.6c1.27,0,2.3,1.03,2.3,2.3
			l0,0C254.88,322.45,253.85,323.48,252.58,323.48z" class="st6"></path>
	</g>
	<g>
		<path d="M242.88,328.38v-14.41c0-1.32,1.07-2.4,2.4-2.4l0,0c1.32,0,2.4,1.07,2.4,2.4v14.41c0,1.32-1.07,2.4-2.4,2.4
			l0,0C243.96,330.78,242.88,329.71,242.88,328.38z" class="st6"></path>
	</g>
	<g>
		<path d="M443.71,279.53c-6.67-9.69-13.34-19.37-20.01-29.06c1.13-2.15,2.26-4.3,3.39-6.44
			c4.97,0.26,9.95,0.53,14.92,0.79C442.58,256.39,443.14,267.96,443.71,279.53z" class="st6"></path>
	</g>
	<g>
		<path d="M436.3,283.93c-9.25-1.7-18.49-3.41-27.74-5.11c-0.57-1.85-1.15-3.71-1.73-5.56
			c2.96-2.66,5.92-5.33,8.88-7.99C422.58,271.49,429.44,277.71,436.3,283.93z" class="st6"></path>
	</g>
	<g>
		<path d="M448.3,274.93c0.69-8.3,1.39-16.6,2.08-24.9c1.58-0.67,3.17-1.34,4.75-2.01c2.61,2.38,5.21,4.76,7.82,7.13
			C458.07,261.74,453.18,268.33,448.3,274.93z" class="st6"></path>
	</g>
</g>
<g>
	<linearGradient y2="542.7236" x2="590.5165" y1="324.6846" x1="590.5165" gradientUnits="userSpaceOnUse" id="SVGID_5_">
		<stop style="stop-color:#C6D6F8" offset="0"></stop>
		<stop style="stop-color:#7AA1F8" offset="1"></stop>
	</linearGradient>
	<polygon points="501.11,526.27 650.52,542.72 679.93,346.23 501.11,324.68" class="st7"></polygon>
	<linearGradient y2="544.3846" x2="428.3752" y1="324.6846" x1="428.3752" gradientUnits="userSpaceOnUse" id="SVGID_6_">
		<stop style="stop-color:#DFE7F8" offset="4.475343e-07"></stop>
		<stop style="stop-color:#7AA1F8" offset="1"></stop>
	</linearGradient>
	<polygon points="501.11,529.44 385.05,544.38 355.64,347.89 501.11,324.68" class="st8"></polygon>
	<linearGradient y2="566.0001" x2="384.208" y1="375.541" x1="494.1696" gradientUnits="userSpaceOnUse" id="SVGID_7_">
		<stop style="stop-color:#C4D5F8" offset="0"></stop>
		<stop style="stop-color:#4D82F8" offset="1"></stop>
	</linearGradient>
	<polygon points="355.64,549.51 522.73,593.61 522.73,392.03 355.64,347.93" class="st9"></polygon>
	<linearGradient y2="593.6135" x2="601.33" y1="346.2314" x1="601.33" gradientUnits="userSpaceOnUse" id="SVGID_8_">
		<stop style="stop-color:#C4D5F8" offset="0"></stop>
		<stop style="stop-color:#4D82F8" offset="1"></stop>
	</linearGradient>
	<polygon points="679.93,547.81 522.73,593.61 522.73,390.34 679.93,346.23" class="st10"></polygon>
	<linearGradient y2="406.6398" x2="712.9714" y1="406.6398" x1="522.7332" gradientUnits="userSpaceOnUse" id="SVGID_9_">
		<stop style="stop-color:#CEDBF8" offset="4.475343e-07"></stop>
		<stop style="stop-color:#92B2F8" offset="1"></stop>
	</linearGradient>
	<polygon points="712.97,416.44 567.93,467.05 522.73,390.34 679.93,346.23" class="st11"></polygon>
	<linearGradient y2="407.4703" x2="517.3466" y1="407.4703" x1="314.6494" gradientUnits="userSpaceOnUse" id="SVGID_10_">
		<stop style="stop-color:#CEDBF8" offset="4.475343e-07"></stop>
		<stop style="stop-color:#92B2F8" offset="1"></stop>
	</linearGradient>
	<polygon points="314.65,421.53 485.95,467.05 517.35,390.61 355.64,347.89" class="st12"></polygon>
</g>
<g>
	<path d="M315.27,490.57c-1.73,0-3.14,1.52-3.14,3.4v10.46c0,1.88,1.4,3.4,3.14,3.4
		s3.14-1.52,3.14-3.4v-10.46C318.41,492.09,317.01,490.57,315.27,490.57z" class="st13" id="圆角矩形-5_30_"></path>
	<path d="M319.46,484.82c-5.6-0.38-6.46,3.35-6.31,6.22c-0.3-0.25-0.67-0.49-1.01-0.47
		c-1.16,0.07-1.05,1.57-1.05,1.57s-0.15,0.62,0.52,1.57c0.5,0.72,1.9,1.3,2.42,1.5l0.2,0.6c0,0,0.83,1.77,1.57,2.61
		c1.04,1.19,1.57,1.57,1.57,1.57s1,0.77,2.09,1.05c1,0.25,2.09,0,2.09,0s1.32-0.16,1.57-2.09c0.15-1.19,0.21-2.68,0.21-4.16l0-0.37
		c-0.02-2.81-0.21-5.41-0.21-5.41S322.79,485.04,319.46,484.82z" class="st14" id="Combined-shape-564_30_"></path>
	<path d="M317.37,489.52c0,0,3.42,0.65,5.23,0c1.85-0.66,2.09-2.61,2.09-2.61s0.05-1.46-0.52-2.61
		c-0.45-0.91-1.57-1.57-1.57-1.57s-0.95-0.7-2.09-0.52c-0.91,0.14-1.57,1.05-1.57,1.05s-1.19,1.18-2.09,1.57
		c-0.93,0.4-2.09,0-2.09,0s-1.82-0.42-3.14,1.05c-2,2.23-1.57,5.23-1.57,5.23s0.33,1.95,1.05,3.66c0.58,1.4,1.57,2.09,1.57,2.09
		s0.52,0.38,1.05,0c0.59-0.43,0-1.05,0-1.05l-0.52-1.05c0,0-2.06,0-2.09-3.14c-0.01-0.52,1.05-0.52,1.05-0.52s0.6-0.01,1.05,0.52
		c0.25,0.29,0.52,1.57,0.52,1.57s0.22-2.55,1.05-3.14C315.74,489.34,317.37,489.52,317.37,489.52z" class="st15" id="形状-17_30_"></path>
	<path d="M303.38,612.93l-3.11,4.84l13.19,8.49c0,0,1.06-1.38,0.38-3.49
		c-0.68-2.11-3.83-3.71-3.83-3.71s-1.06-0.61-1.48-1.57c-0.32-0.74-0.31-1.45-0.31-1.45L303.38,612.93z" class="st16" id="形状-30-拷贝_30_"></path>
	<path d="M327.3,552.28l2.61,25.63c0,0,0.11,0.78,0,1.57c-0.15,1.02-0.52,2.09-0.52,2.09
		l-18.83,36.08l-6.28-4.18c0,0,4.17-16.96,7.84-26.15c1.52-3.81,5.23-6.28,5.23-6.28s-4.85-9.27-7.32-17.78
		c-1.33-4.57-1.05-10.98-1.05-10.98H327.3z" class="st17" id="形状-34_16_"></path>
	<path d="M322.6,551.23c0,0-0.48,15.99-2.09,31.9c-2,19.76-5.23,40.27-5.23,40.27h-5.75
		c0,0-2.83-18.96-3.14-31.9c-0.19-8.13,1.57-12.55,1.57-12.55s-1.8-7.82-3.14-15.69c-0.95-5.59-1.05-12.03-1.05-12.03H322.6z" class="st18" id="形状-29-拷贝_16_"></path>
	<path d="M309.52,623.4v5.75h15.69c0,0,0.15-1.73-1.57-3.14c-1.71-1.4-5.23-1.05-5.23-1.05
		s-1.22,0.06-2.09-0.52c-0.67-0.45-1.05-1.05-1.05-1.05H309.52z" class="st19" id="形状-30_30_"></path>
	<path d="M336.05,521.23c0,0,2.5-0.9,3.56-1.01c0.87-0.09-0.05,1.17-0.05,1.17
		s0.34,0.29,1.17,0.05c0.36-0.1,1.41-0.72,1.68-0.86c0.44-0.24,0.71-0.2,0.71-0.2s2.1,0.26,0.56,3.3c-0.86,1.69-6.25,3.7-6.25,3.7
		L336.05,521.23z" class="st20" id="形状-26-拷贝_6_"></path>
	<path d="M325.88,509.73l-4.86,14.59l14.82-3.41l1.32,6.16l-21.17,5.88c0,0-0.96-0.06-1.57-0.51
		c-0.65-0.48-0.96-1.35-0.96-1.35l-2.08-8.66L325.88,509.73z" class="st21" id="形状-31_7_"></path>
	<path d="M327.3,511.49v40.79h-26.15v-40.27c0,0-0.04-1.98,1.05-3.66c1.07-1.65,3.14-2.61,3.14-2.61l5.68-3.06
		l1.11-0.6c0,0,0.11,0.29,0.31,0.71c0.27,0.53,0.7,1.28,1.26,1.9c1.31,1.46,3.14,2.62,3.14,2.62s0.71-0.37,1.05-1.05
		c0.27-0.54,0.4-1.22,0.47-1.66v-0.02c0.04-0.25,0.05-0.41,0.05-0.41s0.41,0.04,1.05,0.17c1.31,0.26,3.57,0.91,5.22,2.44
		C326.94,508.87,327.3,511.49,327.3,511.49z" class="st21"></path>
	<path d="M313.21,500.89c0,0-0.06-2.66,0.18-3.69c0.19-0.86,1.09,0.42,1.09,0.42
		s0.38-0.23,0.42-1.09c0.02-0.37-0.23-1.56-0.28-1.86c-0.08-0.49,0.04-0.74,0.04-0.74s0.91-1.91,3.31,0.53
		c1.33,1.35,1.51,7.11,1.51,7.11L313.21,500.89z" class="st22" id="形状-26_9_"></path>
	<path d="M319.71,501.38l-0.25,2.96l-0.41,4.84v0.02l-1.28,15.4c0,0.03-0.01,0.79-0.88,1.41
		c-0.48,0.33-1.54,0.59-1.54,0.59l-14.2,3.21v-9.22l8.97-1.2l1.77-12.68l0.55-3.92l0.24-1.73L319.71,501.38z" class="st23"></path>
</g>
</svg>